<?xml version="1.0" encoding="utf-8"?>
<!-- Generator: Adobe Illustrator 23.0.1, SVG Export Plug-In . SVG Version: 6.00 Build 0)  -->
<svg version="1.1" xmlns="http://www.w3.org/2000/svg" xmlns:xlink="http://www.w3.org/1999/xlink" x="0px" y="0px"
	 viewBox="0 0 999.8 400.3" style="enable-background:new 0 0 999.8 400.3;" xml:space="preserve">
<style type="text/css">
	.st0{display:none;}
	.st1{display:inline;fill:#081654;}
	.st2{fill:#FFFFFF;}
	.st3{font-family:'MSReferenceSansSerif';}
	.st4{font-size:13px;}
	.st5{font-size:10.9696px;}
	.st6{font-size:14px;}
</style>
<g id="Layer_2" class="st0">
	<rect class="st1" width="999.8" height="400.3"/>
	<rect x="-4.7" class="st1" width="999.8" height="400.3"/>
	
		<image style="display:inline;overflow:visible;" width="455" height="455" xlink:href="transactional_sms455x455.png"  transform="matrix(0.4391 0 0 0.3116 767.0419 232.0253)">
	</image>
</g>
<g id="flechas">
	
		<image style="overflow:visible;enable-background:new    ;" width="73" height="41" id="flecha_segunda" xlink:href="4F83A3F7.png"  transform="matrix(0.9936 0 0 0.9936 439.0792 72.6192)">
	</image>
	
		<image style="overflow:visible;enable-background:new    ;" width="73" height="41" id="flecha_segunda_copy_3" xlink:href="4F83A3F5.png"  transform="matrix(0.9936 0 0 0.9936 439.0792 286.4915)">
	</image>
	
		<image style="overflow:visible;enable-background:new    ;" width="73" height="41" id="flecha_segunda_copy_2" xlink:href="4F83A3F3.png"  transform="matrix(0.9936 0 0 0.9936 206.3879 79.704)">
	</image>
	
		<image style="overflow:visible;enable-background:new    ;" width="73" height="41" id="flecha_segunda_copy" xlink:href="4F83A3FD.png"  transform="matrix(0.9936 0 0 0.9936 683.9474 72.6192)">
	</image>
	
		<image style="overflow:visible;enable-background:new    ;" width="73" height="92" id="Layer_3_copy_5" xlink:href="4F83A3FF.png"  transform="matrix(1.0008 0 0 1.0008 694.855 235.1388)">
	</image>
	
		<image style="overflow:visible;enable-background:new    ;" width="73" height="54" id="Layer_3_copy_6" xlink:href="4F83A3F2.png"  transform="matrix(0.9948 0 0 0.9948 206.3447 262.0677)">
	</image>
	
		<image style="overflow:visible;enable-background:new    ;" width="38" height="39" id="big_arrow" xlink:href="4F83A3F1.png"  transform="matrix(0.9905 0 0 0.9905 811.652 199.6503)">
	</image>
	<text transform="matrix(1.1684 0 0 1 782.9922 252.4308)" class="st2 st3 st4">Correo masivo </text>
	<text transform="matrix(1.1684 0 0 1 793.322 271.7049)" class="st2 st3 st4">  $ SMS</text>
	
		<image style="overflow:visible;enable-background:new    ;" width="220" height="130" xlink:href="4F83A3F6.png"  transform="matrix(1.0014 0 0 1.0014 767.917 50.0364)">
	</image>
	<text transform="matrix(1.0348 0 0 1 793.3223 192.9814)" class="st2 st3 st5">Email Chimp</text>
	
		<image style="overflow:visible;enable-background:new    ;" width="123" height="126" id="Layer_0" xlink:href="7E06B27E.png"  transform="matrix(0.9972 0 0 0.9972 58.4496 115.8461)">
	</image>
	<text transform="matrix(0.9934 0 0 1 93.9028 262.0677)" class="st2 st3 st6">Usuario</text>
	
		<image style="overflow:visible;enable-background:new    ;" width="143" height="101" id="landing_dibujo" xlink:href="7E06B279.png"  transform="matrix(0.9996 0 0 0.9996 522.9882 50.922)">
	</image>
	
		<image style="overflow:visible;enable-background:new    ;" width="81" height="11" id="landing_sdf_dsf" xlink:href="7E06B27A.png"  transform="matrix(0.9949 0 0 0.9949 558.3705 76.6672)">
	</image>
	<text transform="matrix(1.1078 0 0 1 566.8604 172.397)" class="st2 st3 st6">Landing</text>
	
		<image style="overflow:visible;enable-background:new    ;" width="143" height="101" id="google_ads_dibujo" xlink:href="7E06B278.png"  transform="matrix(0.9971 0 0 0.9971 284.7203 50.1633)">
	</image>
	<text transform="matrix(1.1078 0 0 1 324.3953 389.2373)" class="st2 st3 st6">Anuncio</text>
	
		<image style="overflow:visible;enable-background:new    ;" width="143" height="101" xlink:href="7E06B276.png"  transform="matrix(0.9996 0 0 0.9996 522.9882 265.6799)">
	</image>
	<text transform="matrix(1.1037 0 0 1 547.3705 389.2373)" class="st2 st3 st6">Remarketing</text>
	
		<image style="overflow:visible;enable-background:new    ;" width="143" height="101" id="google_ads_dibujo_copy" xlink:href="7E06B269.png"  transform="matrix(0.9971 0 0 0.9971 284.7203 265.8068)">
	</image>
	<text transform="matrix(1.1037 0 0 1 995.162 376.8405)" class="st2 st3 st6">Anuncio</text>
	
		<image style="overflow:visible;enable-background:new    ;" width="124" height="66" xlink:href="7E06B26A.png"  transform="matrix(0.9929 0 0 0.9929 294.4485 274.093)">
	</image>
</g>
</svg>
